<?xml version="1.0" encoding="utf-8"?>
<!-- Generator: Adobe Illustrator 24.1.2, SVG Export Plug-In . SVG Version: 6.00 Build 0)  -->
<svg version="1.1" id="Layer_1" xmlns="http://www.w3.org/2000/svg" xmlns:xlink="http://www.w3.org/1999/xlink" x="0px" y="0px"
	 viewBox="0 0 950 1000" style="enable-background:new 0 0 950 1000;" xml:space="preserve">
<style type="text/css">
	.st0{fill:#F8F8F8;}
	.st1{fill:#FFA200;}
	.st2{fill:#CC7900;}
	.st3{fill:#FFC766;}
	.st4{fill:#4D4D4D;}
	.st5{fill:#0D0D0D;}
	.st6{fill:#FFFFFF;}
	.st7{fill:#F1E3E0;}
	.st8{fill:#E58D00;}
	.st9{fill:#F1C5BC;}
	.st10{fill:#CCFFF8;}
	.st11{fill:#009687;}
	.st12{fill:#03ABB0;}
	.st13{fill:#00CDBC;}
	.st14{fill:#4489C8;}
	.st15{fill:#D4E7F7;}
	.st16{fill:#014A91;}
	.st17{fill:#A64B30;}
	.st18{opacity:0.2;fill:#FFFFFF;}
	.st19{fill:#F7A58E;}
	.st20{fill:#103558;}
	.st21{fill:#00EACE;}
	.st22{fill:#00FFDA;}
	.st23{fill:#0386C2;}
	.st24{fill:#029A65;}
</style>
<g>
	<g>
		<path class="st0" d="M805.7,997.6C865.3,922.7,901,828,901,725c0-242.5-197.5-439.1-441.1-439.1S18.8,482.4,18.8,725
			c0,103,35.6,197.7,95.3,272.6H805.7z"/>
		<g>
			<g>
				<g>
					<g>
						<g>
							<g>
								<rect x="789.8" y="868.8" class="st1" width="100.9" height="129"/>
								<polygon class="st2" points="890.7,997.9 890.7,868.8 950,868.8 949.1,997.9 								"/>
							</g>
							<rect x="827.5" y="868.8" class="st3" width="15.1" height="29.4"/>
						</g>
						<g>
							<polygon class="st2" points="743.2,997.9 743.2,868.8 789.8,868.8 789.1,997.9 							"/>
						</g>
						<g>
							<g>
								<rect x="720.5" y="768.2" class="st2" width="74.8" height="100.7"/>
								<polygon class="st1" points="729.3,868.8 729.3,768.2 670.3,768.2 671.1,868.8 								"/>
							</g>
							<rect x="754.1" y="768.2" class="st3" width="11.8" height="22.9"/>
						</g>
						<g>
							<rect x="845" y="768.2" class="st1" width="74.8" height="100.7"/>
							<polygon class="st1" points="845,868.8 845,768.2 794.8,768.2 795.6,868.8 							"/>
						</g>
						<rect x="875" y="768.2" class="st2" width="44.9" height="100.7"/>
					</g>
					<rect x="641.1" y="868.8" class="st1" width="104.6" height="129"/>
					<rect x="685.8" y="868.8" class="st3" width="15.1" height="29.4"/>
				</g>
				<rect x="828.5" y="768.2" class="st3" width="11.8" height="22.9"/>
				<g>
					<g>
						<rect x="776.1" y="669.2" class="st2" width="74.8" height="100.7"/>
						<polygon class="st1" points="784.8,769.8 784.8,669.2 725.9,669.2 726.7,769.8 						"/>
					</g>
					<rect x="809.7" y="669.2" class="st3" width="11.8" height="22.9"/>
				</g>
			</g>
		</g>
		<ellipse class="st0" cx="858.7" cy="212.6" rx="49.3" ry="49"/>
	</g>
	<g>
		<g>
			<g>
				<path class="st4" d="M679.7,49.1c-7.5-44.5-76.4-64.6-75-35.5l-315.6,1.8c-21.9,0.1-39.6,19.7-39.6,43.7l-0.7,826.2
					c0,24.9,18,45.3,40.3,45.5l322.1,2.8c2,4.2,5.7,8,11.6,11.2c36.9,0.8,54.7-17.4,61.1-37.9c2.1-5.5,3.3-11.6,3.2-18
					C685.9,878.1,682,59.6,679.7,49.1z"/>
				<g>
					<g>
						<path class="st4" d="M619.4,944.9l-369.8-2.4c-23.1-0.1-41.7-21.1-41.7-46.7l1.4-849.7c0-24.7,18.4-44.8,41-44.9L613,0.1
							c22.8-0.1,41.5,20,41.7,44.8l6.6,853.7C661.4,924.3,642.7,945.1,619.4,944.9z"/>
						<path class="st5" d="M624.5,938.8c-1.5,0.2-3.1,0.3-4.7,0.3l-369.7-2.8c-19.8-0.1-36-18.5-36-40.9l1.3-848.8
							c0-21.6,16-39.2,35.4-39.3l362.6-1.6c0.6,0,1.1,0,1.7,0c9.1,0.4,17.7,4.6,24,11.6c6.5,7.2,10.1,16.8,10.2,27l6.5,854.5
							C656.1,919.3,642.6,936.3,624.5,938.8z"/>
						<polygon class="st6" points="636.7,48.8 641.9,900.3 226.5,897.8 227.6,48.8 						"/>
					</g>
				</g>
			</g>
		</g>
		<g>
			<g>
				<polygon class="st1" points="353.1,227 399,226.6 546.5,45.8 500.4,46.1 				"/>
				<polygon class="st7" points="399,226.6 444.9,226.2 592.6,45.4 546.5,45.8 				"/>
				<polygon class="st1" points="444.9,226.2 490.8,225.8 638.7,45 592.6,45.4 				"/>
				<polygon class="st7" points="307.3,227.3 353.1,227 500.4,46.1 454.4,46.5 				"/>
				<polygon class="st7" points="215.5,228.1 261.4,227.7 408.3,46.9 362.2,47.3 				"/>
				<polygon class="st1" points="82.4,229.2 123.8,228.8 270,48 228.5,48.4 				"/>
				<polygon class="st7" points="123.8,228.8 169.6,228.5 316.1,47.6 270,48 				"/>
				<polygon class="st1" points="261.4,227.7 307.3,227.3 454.4,46.5 408.3,46.9 				"/>
				<polygon class="st1" points="169.6,228.5 215.5,228.1 362.2,47.3 316.1,47.6 				"/>
			</g>
			<path class="st8" d="M444.9,226.2l0,27.5c0,29.2,45.8,28.8,45.9-0.4l0-27.5L444.9,226.2z"/>
			<path class="st9" d="M399,226.6l0,27.5c0,29.2,45.8,28.8,45.8-0.4l0-27.5L399,226.6z"/>
			<path class="st8" d="M353.1,227l0,27.5c0,29.2,45.9,28.8,45.9-0.4l0-27.5L353.1,227z"/>
			<path class="st9" d="M307.3,227.3l0.1,27.5c0.1,29.2,45.9,28.8,45.8-0.4l0-27.5L307.3,227.3z"/>
			<path class="st8" d="M261.4,227.7l0.1,27.5c0.1,29.2,45.9,28.8,45.9-0.4l-0.1-27.5L261.4,227.7z"/>
			<path class="st9" d="M215.5,228.1l0.1,27.5c0.1,29.2,45.9,28.8,45.8-0.4l-0.1-27.5L215.5,228.1z"/>
			<path class="st8" d="M169.6,228.5l0.2,27.5c0.2,29.2,46,28.8,45.9-0.4l-0.1-27.5L169.6,228.5z"/>
			<path class="st9" d="M123.8,228.8l0.2,27.5c0.2,29.2,46,28.8,45.8-0.4l-0.2-27.5L123.8,228.8z"/>
			<path class="st8" d="M82.4,229.2l0.2,27.5c0.2,29.2,41.6,28.8,41.3-0.3l-0.2-27.5L82.4,229.2z"/>
			<polygon class="st7" points="490.8,225.8 637.8,225 638.7,45 			"/>
		</g>
		<g>
			<polygon class="st10" points="614.4,648.5 251,648.1 251,643.3 614.4,643.7 			"/>
			<polygon class="st10" points="614.4,782.2 251,781.8 251,777 614.4,777.4 			"/>
			<polygon class="st10" points="614.4,511.7 251,511.2 251,507.3 614.4,507.7 			"/>
			<g>
				<g>
					<path class="st10" d="M581.9,338.2l-297.8-1.7c-10.7-0.1-19.4-9-19.4-19.8c0-10.9,8.7-19.7,19.4-19.6l297.8,1.9
						c10.6,0.1,19.2,8.9,19.2,19.7C601.1,329.5,592.5,338.3,581.9,338.2z M284.1,298.3c-10-0.1-18.2,8.1-18.2,18.3
						c0,10.2,8.1,18.5,18.2,18.5l297.8,1.7c9.9,0.1,17.9-8.1,17.9-18.2s-8-18.4-17.9-18.4L284.1,298.3z"/>
				</g>
				<path class="st10" d="M581.9,299.6l-31-0.2v38l31,0.2c10.3,0.1,18.6-8.4,18.6-18.8C600.5,308.2,592.2,299.7,581.9,299.6z"/>
				<g>
					<path class="st11" d="M570.4,324c-2.6,0-5-1.1-6.8-2.9c-3.8-3.9-3.8-10.1,0-13.9c1.8-1.8,4.2-2.9,6.8-2.8c2.6,0,5,1.1,6.8,2.9
						l0,0c3.8,3.9,3.8,10.1,0,13.9C575.4,323,573,324,570.4,324z M570.4,306.7c-2,0-3.8,0.8-5.2,2.2c-2.8,2.9-2.8,7.6,0,10.5
						c1.4,1.4,3.2,2.2,5.2,2.2c2,0,3.8-0.8,5.2-2.2c2.8-2.9,2.8-7.6,0-10.5C574.2,307.5,572.4,306.8,570.4,306.7z"/>
					<polygon class="st11" points="582.9,328.7 575.6,321.2 577.2,319.5 584.5,327.1 					"/>
					<path class="st11" d="M586.1,330.4L586.1,330.4c-0.8,0.8-2.1,0.8-3,0l-6.1-6.3l3-3l6.1,6.3C587,328.2,587,329.6,586.1,330.4z"
						/>
				</g>
			</g>
			<polygon class="st10" points="366.6,490.2 264.7,489.8 264.7,386.2 366.6,386.8 			"/>
			<polygon class="st10" points="485.2,490.8 383.5,490.3 383.5,386.9 485.2,387.4 			"/>
			<polygon class="st10" points="600.8,491.3 499.4,490.9 499.4,387.5 600.8,388.1 			"/>
			<polygon class="st10" points="366.6,629.2 264.7,628.9 264.7,525.3 366.6,525.7 			"/>
			<polygon class="st10" points="485.2,629.6 383.5,629.2 383.5,525.8 485.2,526.2 			"/>
			<polygon class="st10" points="600.8,629.9 499.4,629.6 499.4,526.3 600.8,526.7 			"/>
			<polygon class="st10" points="366.6,765.7 264.7,765.5 264.7,661.9 366.6,662.2 			"/>
			<polygon class="st10" points="485.2,765.9 383.5,765.7 383.5,662.3 485.2,662.5 			"/>
			<polygon class="st10" points="600.8,766.1 499.4,765.9 499.4,662.6 600.8,662.9 			"/>
			<g>
				<path class="st12" d="M343.6,464.6l-2.3-0.7c0-0.2,4-17.3,4.3-23.8c0.4-7.9-2-14.8-7-20.1c-5.7-6.1-14.3-9.6-23.6-9.6
					c-9.2-0.1-17.1,3-22.4,8.7c-4.9,5.2-7.2,12.4-6.8,20.7c0.4,6.6,3.7,23.2,3.7,23.3l-2.3,0.5c-0.1-0.7-3.4-16.9-3.8-23.7
					c-0.5-9,2.1-16.8,7.4-22.5c5.8-6.2,14.3-9.5,24.2-9.5c10,0.1,19.3,3.8,25.4,10.4c5.4,5.8,8,13.4,7.6,21.9
					C347.6,447,343.8,463.9,343.6,464.6z"/>
				<g>
					<g>
						<path class="st12" d="M287.3,452.4l3.1,16.8c0.3,1.8,1.9,3.1,3.7,2.9l-4.4-23.8C288,448.8,286.9,450.5,287.3,452.4z"/>
						<path class="st12" d="M294.5,472l6.7-1.2l-4.4-23.8l-6.7,1.2c-0.1,0-0.3,0.1-0.4,0.1l4.4,23.8
							C294.2,472.1,294.4,472.1,294.5,472z"/>
					</g>
					<g>
						<path class="st6" d="M302.9,473.1L302.9,473.1c-2,0.4-4-1-4.4-3.1l-4-21.5c-0.4-2.1,1-4,3-4.4l0,0c2-0.4,4,1,4.4,3.1l4,21.5
							C306.3,470.8,304.9,472.8,302.9,473.1z"/>
					</g>
				</g>
				<g>
					<g>
						<path class="st12" d="M343.7,452.9l-3.5,16.6c-0.4,1.8-2,3-3.8,2.8l4.9-23.6C343,449.3,344,451.1,343.7,452.9z"/>
						<path class="st12" d="M336,472.3l-6.6-1.5l5-23.7l6.6,1.5c0.1,0,0.2,0.1,0.4,0.1l-4.9,23.6C336.2,472.3,336.1,472.3,336,472.3
							z"/>
					</g>
					<g>
						<path class="st6" d="M327.5,473.1L327.5,473.1c2,0.4,4-0.9,4.4-2.9l4.5-21.4c0.4-2.1-0.9-4.1-2.9-4.5l0,0
							c-2-0.4-4,0.8-4.4,2.9l-4.5,21.4C324.2,470.6,325.5,472.6,327.5,473.1z"/>
					</g>
				</g>
			</g>
			<g>
				<polygon class="st6" points="447.2,423.8 444.8,428.1 401.2,427.9 401.2,465.9 467.6,466.2 467.6,428.7 464.9,423.9 				"/>
				<polygon class="st6" points="442,430 426.7,430 426.7,423.7 442,423.8 				"/>
				<polygon class="st6" points="421.6,429.9 406.3,429.8 406.3,423.6 421.6,423.7 				"/>
				<polygon class="st11" points="467.6,458.9 401.2,458.5 401.2,436.6 467.6,437 				"/>
				<path class="st11" d="M462.9,447.9c0,8.5-6.8,15.4-15.2,15.4c-8.4,0-15.2-7-15.2-15.6s6.8-15.4,15.2-15.4
					C456.1,432.4,462.9,439.3,462.9,447.9z"/>
				<path class="st6" d="M459.5,447.9c0,6.6-5.3,12-11.8,11.9c-6.5,0-11.8-5.4-11.8-12.1c0-6.6,5.3-12,11.8-11.9
					C454.2,435.8,459.5,441.2,459.5,447.9z"/>
				<path class="st13" d="M453.4,447.8c0,3.2-2.5,5.7-5.6,5.7c-3.1,0-5.6-2.6-5.6-5.8c0-3.2,2.5-5.7,5.6-5.7
					C450.8,442.1,453.4,444.7,453.4,447.8z"/>
			</g>
			<g>
				<path class="st11" d="M355.1,744.1c-0.5-10.4-23.9-17-23.9-17s-21.4-23.5-30.4-35.3c-15.3,5.9-18.9,13.3-16.6,26.1
					c7.4-6.3,20.1,5.3,35.5,26.1L355.1,744.1z"/>
				<path class="st12" d="M284.1,717.9l5.1,27.2l2.5,0c0.7-12.2,2.2-26.1,10.3-21.7C302,712.5,284.1,712.5,284.1,717.9z"/>
			</g>
			<g>
				<g>
					<path class="st6" d="M322.5,541.6c-0.5-1.4-0.8-2.8-0.9-4.2l-1.1,0c0,1.3-0.3,2.7-0.5,3.4c-0.8,3-3,5.2-5.7,5.4
						c-2.7-0.2-4.9-2.4-5.7-5.4c-0.2-0.7-0.5-2.1-0.5-3.4l-1.1,0c-0.1,1.4-0.4,2.9-0.9,4.2c-1.1,3.3-3.1,6.1-5.4,8.4l1.8,17l11.4,0
						l1,0l11.4,0l1.8-17C325.6,547.7,323.7,544.9,322.5,541.6z"/>
					<path class="st6" d="M340.8,611.5c-5.1,5.2-46.7,5.5-53-0.2c2.8-16.1,6.6-31.6,14.6-44.4l23.8,0.1
						C333.4,578.1,337.5,594.1,340.8,611.5z"/>
				</g>
				<path class="st14" d="M316.3,571c-9.6,0-14.2-4.1-14.4-4.3c-0.1-0.1-0.2-0.4,0-0.5c0.1-0.1,0.4-0.2,0.5,0c0,0,4.6,4.1,13.9,4.1
					c0,0,0,0,0,0c8.3,0,9.5-3.4,9.5-3.4c0.1-0.2,0.3-0.3,0.4-0.2c0.2,0.1,0.3,0.3,0.2,0.4C326.5,567.2,325.3,571,316.3,571
					C316.4,571,316.3,571,316.3,571z"/>
				<path class="st14" d="M315.4,577.5c-0.2,0-0.5-0.1-0.8-0.4c-1.7-2.2,2.6-6.2,3.1-6.7l0.8-0.7l-0.2,1c-0.3,1.5-1.3,6.4-2.7,6.8
					C315.5,577.5,315.4,577.5,315.4,577.5z M317.4,571.7c-1.3,1.4-3.1,3.8-2.2,4.9c0.1,0.1,0.2,0.2,0.3,0.2
					C316,576.6,316.8,574.2,317.4,571.7z"/>
				<path class="st14" d="M317.6,571.5l0-0.9c0-0.2,0.1-5.3,2.1-7c0.5-0.5,1.1-0.6,1.8-0.5c0.8,0.1,1.1,0.5,1.2,0.8
					c0.6,1.9-3.6,6.1-4.5,7L317.6,571.5z M321.2,563.8c-0.4,0-0.7,0.1-1,0.4c-1.3,1.1-1.7,4-1.8,5.5c1.8-1.9,3.9-4.6,3.6-5.6
					c0-0.1-0.1-0.3-0.6-0.3C321.3,563.8,321.2,563.8,321.2,563.8z"/>
				<path class="st14" d="M324.7,576.8c-0.1,0-0.3-0.1-0.3-0.2c-2.1-4.4-6.5-5.6-6.5-5.6c-0.2-0.1-0.3-0.2-0.3-0.4
					c0-0.2,0.2-0.3,0.4-0.3c0.2,0.1,4.7,1.3,7,6c0.1,0.2,0,0.4-0.2,0.5C324.8,576.8,324.7,576.8,324.7,576.8z"/>
			</g>
			<g>
				<path class="st6" d="M422.7,552.7c0,0,7.1,2.4,17.6-0.3c6.7,8.2-5.1,12.2-12.5,10.4C420.4,561,422.7,552.7,422.7,552.7z"/>
				<path class="st11" d="M440.3,552.4c-0.6,2.2-1.7,4.2-3.9,5.5c-5,2.9-11.5-0.2-13.7-5.2c-4,0.5-7.5,1.3-9.9,2.2v56.9l39.5,0.1
					v-56.9C448.6,553.7,444.5,552.9,440.3,552.4z"/>
				<polygon class="st11" points="412.7,554.9 395.7,568.3 406.9,583.2 423.5,570.6 				"/>
				<polygon class="st11" points="452.3,555.1 469.3,568.5 458.1,583.4 441.5,570.7 				"/>
			</g>
			<g>
				<g>
					<path class="st11" d="M512.4,602.7l-0.8,0v3.4c0,0,42.5,3.1,59.2,0.2c16.7-2.9,17.9-8.5,17.9-8.5v-3.5l-0.6,0L512.4,602.7z"/>
					<path class="st6" d="M588,596c-4.4,5.8-17.7,7.5-34.3,7.7c-6.8,0.1-14.3-0.1-21.8-0.3c-6.5-0.2-13-0.5-19.5-0.7
						c-0.6-4.8,1-13.8,2.4-18.8c0.4-1.6,0.8-2.8,1.1-3.3l0.2-0.1c2.2,3.1,7.6,4.9,10.9,4.9c5.3-0.1,11.2-3.8,9.5-8.2
						c-0.3-0.6-0.5-1.1-0.6-1.6c-1.3-4.4,2.3-4.4,7.9-1c9.8,6.2,18.6,8.5,25.6,9.6c1.5,0.2,2.8,0.4,4.2,0.6
						C583.4,586.1,588.9,586.1,588,596z"/>
					<path class="st11" d="M587.5,596c-4.4,5.8-17.7,7.5-34.3,7.7c-0.5-2.4-0.9-8.8,7.7-10.4c6.5-1.2,10.2-5.4,12.1-8.5
						C582.8,586.1,588.4,586.1,587.5,596z"/>
					<path class="st11" d="M531.4,603.4c-6.5-0.2-13-0.5-19.5-0.7c-0.6-4.8,1-13.8,2.4-18.8C519.7,585.9,529.5,591,531.4,603.4z"/>
					<path class="st11" d="M569.3,584.2c-1.3,2-3.2,2-5.1,2c-16.8-1.2-25.3-7.8-28.4-10.7c-1.3-4.4,2.3-4.4,7.9-1
						C553.5,580.8,562.3,583.1,569.3,584.2z"/>
				</g>
				<path class="st15" d="M549.3,604.3c-8.6,0-17.2-0.5-24.3-0.9c-6.2-0.3-11.1-0.6-13.1-0.4l-0.3,0l-0.1-0.7l0.3,0
					c2.1-0.2,7,0,13.2,0.4c19.7,1.1,56.4,3.2,62.7-8.6l0.2-0.3l0.6,0.3l-0.2,0.3C584.1,602.6,566.7,604.4,549.3,604.3z"/>
			</g>
			<g>
				<polygon class="st11" points="561.8,473.6 540.4,473.5 540.4,407.3 561.8,407.4 				"/>
				<g>
					<path class="st6" d="M569.1,439.6c0,10.6-8.5,19.2-18.9,19.1c-10.4-0.1-18.9-8.7-18.9-19.3c0-10.6,8.5-19.2,18.9-19.1
						C560.6,420.3,569.1,428.9,569.1,439.6z"/>
					<path class="st11" d="M565.4,439.5c0,8.6-6.8,15.5-15.2,15.4c-8.4,0-15.2-7-15.2-15.6c0-8.6,6.8-15.5,15.2-15.4
						C558.6,424,565.4,431,565.4,439.5z"/>
					<polygon class="st6" points="534.8,430.9 532.3,429.1 535.2,425 537.7,426.7 					"/>
					
						<rect x="529.9" y="439.5" transform="matrix(0.9915 -0.1302 0.1302 0.9915 -53.0321 72.9578)" class="st6" width="3" height="5.1"/>
					<polygon class="st6" points="565.4,430.9 567.9,429.2 565.1,425 562.6,426.7 					"/>
					<polygon class="st6" points="567,444.8 570,445.2 570.6,440.1 567.7,439.7 					"/>
					<path class="st6" d="M550.2,440.3l-7.4-3.9c-0.3-0.2-0.5-0.6-0.3-1c0.2-0.4,0.6-0.5,1-0.3l6.7,3.6l9.4-6.1
						c0.3-0.2,0.8-0.1,1,0.2c0.2,0.3,0.1,0.8-0.2,1L550.2,440.3z"/>
				</g>
			</g>
			<g>
				<path class="st11" d="M397.8,730.1c3.5,1.1,8.6,2,14.4,2.6c9.5,1,21,1.4,30.9,1c9.7-0.4,17.9-1.5,20.9-3.5
					c0,0,6.5-39.2-31.8-40.2c-0.4,0-0.9,0-1.3,0C391.2,689.9,397.8,730.1,397.8,730.1z"/>
				<path class="st6" d="M412.2,732.7c9.5,1,21,1.4,30.9,1c5.4-35.6-10-43.3-10.9-43.7c0,0,0,0,0,0l-1.3,0
					C410.8,701.4,411.8,727,412.2,732.7z"/>
				<path class="st11" d="M459.9,731.7c0,0-10.8,18.3-61.1,14.1c-21.5-1.8-1-15.7-1-15.7C411.4,733.4,437.5,735,459.9,731.7z"/>
			</g>
			<g>
				<g>
					<path class="st11" d="M538.1,701l23.2,0.1c13.2,0,24.2,10.8,24.1,24.3c0,5.4-1.7,10.1-5.8,12.6l-61.1-0.1
						c-3.9-1.8-5.3-8.2-4.3-15.8C515.9,709.9,526.1,701,538.1,701z"/>
					<path class="st11" d="M541.6,701.6l0-0.2c0.4-4.5,4.2-8.1,8.8-8.1c4.5,0,8.4,3.6,8.8,8.1l0,0.2l3,0l0-0.5
						c-0.5-6.1-5.7-10.9-11.7-10.9c-6.1,0-11.2,4.8-11.7,10.9l0,0.5L541.6,701.6z"/>
				</g>
				<polygon class="st6" points="547.6,737.8 541.9,737.8 541.9,715 547.6,715 				"/>
				<polygon class="st6" points="558.9,737.9 553.2,737.8 553.2,715 558.9,715 				"/>
			</g>
			<rect x="226.5" y="854.9" class="st13" width="415.4" height="45.4"/>
			<polygon class="st6" points="454.4,891.4 429.4,891.4 429.4,873.4 441.9,863.9 454.4,873.4 			"/>
			<rect x="275.2" y="869.4" class="st6" width="31" height="16.4"/>
			<rect x="581" y="869.4" class="st6" width="31" height="16.4"/>
		</g>
	</g>
	<rect x="286" y="933.1" class="st5" width="429.3" height="33.5"/>
	<rect x="98.5" y="933.1" class="st4" width="490" height="33.5"/>
	<rect y="966.5" class="st4" width="562.1" height="33.5"/>
	<rect x="518.2" y="966.5" class="st5" width="197.1" height="33.5"/>
	<g>
		<g>
			<g>
				<g>
					<path class="st16" d="M278.7,617.2c-10.7,31.3-4.1,97.8-19.4,141.6c-23.8,68-12,98-22.8,150.4l25,1.9
						c23.2-102.9,75.3-248.7,81.7-281.8C349.6,596.1,288.8,591.7,278.7,617.2z"/>
					<path class="st16" d="M318.2,655.6c1,12.2,17.7,82.4,8.1,116c-15.2,53-7.3,145.4-7.3,145.4l20.2-0.1
						c19.6-85.9,46.4-211,44.3-290.1C380.5,593.5,311.9,581.8,318.2,655.6z"/>
					<ellipse class="st16" cx="330" cy="627.8" rx="53.5" ry="40.4"/>
					<g>
						<path class="st17" d="M347.1,959.8c-2.1-1.2-6.6-2.2-6.6-2.2l-4.3-19l22.5-103.9l-42.9-4l0.1,100.8l-3.2,11.7
							c0,0,14.6,21.7,18,21.7c3.4,0,16.3,0.3,18.4,0.3C349.2,963.7,349,960.8,347.1,959.8z"/>
						<polygon class="st17" points="312.8,943 315.8,966.1 317.2,966.1 327.4,942.1 						"/>
					</g>
					<g>
						<path class="st17" d="M264.3,959.8c-2-1.2-6.4-2.2-6.4-2.2l-3.2-19l28.7-108.6l-39.8-4.4l-8.8,105.8l-4.3,10.7
							c0,0,13.7,22.6,17.1,22.6c3.4,0,16.3,0.3,18.4,0.3C266.1,963.7,266.1,960.8,264.3,959.8z"/>
						<polygon class="st17" points="230.6,942.1 232.6,966.1 234,966.1 245.7,942.1 						"/>
					</g>
					<path class="st16" d="M299.4,576.8c-13.4,16-19.9,32.1-22.3,47.3c0,0,17.4,13.3,48.7,13.4c15.8,0.1,49.3-4,57.5-13.1
						c-1-8.4-3.9-27.6-12.8-52.6C362.4,549.2,311.2,547.1,299.4,576.8z"/>
					<path class="st18" d="M318,633.2c3.2-10.5,3.8-23,3.8-23l-32.2-2.8c-1.1,8.1-2.1,15.7-2.3,22.2l13.7,10.3L318,633.2z"/>
					<path class="st18" d="M365.3,635.2c2.6-10.7,2.5-23.2,2.5-23.2l-32.3-1.1c-0.7,8.1-1.3,15.8-1.1,22.2l14.3,9.6L365.3,635.2z"/>
				</g>
				<g>
					<g>
						<path class="st19" d="M308.4,476.8c0,0-27.8-20.4-82.9,70.6c-7,11.6-30.8,66.8-30.8,66.8l14.3,9.3l42.8-60.4
							C251.7,563.1,337.4,491.7,308.4,476.8z"/>
						<g>
							<g>
								<path class="st20" d="M183.5,655.5c-0.1,0-0.1,0-0.2-0.1c-0.2-0.1-0.2-0.4,0-0.6c0.2-0.2,15.3-15.9,14.6-24.9
									c-0.1-1.7-0.9-3.1-2.2-4.1c-9-6.8-32.1,17-32.3,17.2c-0.2,0.2-0.4,0.2-0.6,0c-0.2-0.1-0.2-0.4,0-0.6
									c1-1,23.8-24.6,33.4-17.3c1.5,1.1,2.3,2.7,2.5,4.7c0.7,9.4-14.2,24.9-14.8,25.5C183.8,655.5,183.7,655.6,183.5,655.5z"/>
								<path class="st20" d="M175.7,650.2c-0.1,0-0.2-0.1-0.2-0.2c-0.1-0.2-0.1-0.4,0.1-0.5c0.2-0.1,19.3-13.6,19.5-21.7
									c0-1.5-0.6-2.7-1.8-3.6c-9.1-6.9-37.4,13.5-37.7,13.7c-0.2,0.1-0.4,0.1-0.5-0.1c-0.1-0.2-0.1-0.4,0.1-0.5
									c1.2-0.9,29.1-20.9,38.7-13.6c1.5,1.1,2.2,2.5,2.1,4.3c-0.2,8.6-19,21.8-19.8,22.4C175.9,650.2,175.8,650.2,175.7,650.2z"/>
								<g>
									<polygon class="st21" points="138.6,624.8 57.7,720.5 85.8,739 153.4,634.6 									"/>
									<polygon class="st13" points="156.8,636.8 85.6,738.9 131.7,769.2 194.2,661.5 									"/>
									<polygon class="st22" points="149.5,632 83.5,715.9 85.8,739 156.9,636.9 									"/>
								</g>
								<polygon class="st21" points="83.5,715.9 57.6,720.4 85.6,738.9 								"/>
							</g>
							<g>
								<g>
									<polygon class="st21" points="168,646.1 100.3,754.5 131.4,769.1 184.3,653.8 									"/>
									<polygon class="st13" points="188.1,655.6 131.2,769 182.2,793 229.5,675 									"/>
									<polygon class="st22" points="180,651.8 125.6,746.1 131.4,769.1 188.2,655.6 									"/>
								</g>
								<polygon class="st21" points="125.6,746.1 100.1,754.4 131.2,769 								"/>
							</g>
						</g>
						<path class="st19" d="M209.5,622.5l-5.2,9c0,0,4.4,4.4,2.5,7.3c-5.5,6.1-19.2,3.9-22,1.5c-2.8-2.5-5.6-8.9-3.4-13.7
							c2.2-4.8,13.1-12.5,13.1-12.5S208.1,617.1,209.5,622.5z"/>
						<polygon class="st19" points="342.2,498.9 302.9,500.1 311,434.4 342.5,433.5 						"/>
						<g>
							<g>
								<path class="st19" d="M363.8,408.5c3.3,26.3-2.3,46.1-21.5,48.1c-19.2,2-46-20.6-48.1-40.8c-2.1-20.2,11.8-38.2,31-40.2
									C344.4,373.6,361.3,388.4,363.8,408.5z"/>
							</g>
							<path class="st19" d="M357.5,414.7c0.7,3.9-1.8,7.6-5.7,8.4c-3.9,0.7-7.7-1.8-8.4-5.7c-0.7-3.9,1.8-7.6,5.7-8.4
								C353,408.3,356.8,410.8,357.5,414.7z"/>
						</g>
						<path class="st23" d="M374.8,520.2c-0.2,7.4-0.7,61.6-0.7,61.6s-45.6-2.8-76-3.4c-13.9-57.8-31-85.2,3.1-104.5
							C349.4,455.9,375,494.5,374.8,520.2z"/>
						<path class="st19" d="M349.9,470.7c-35.3,11.6-48.7,3.2-48.7,3.2C308.8,468.1,337.2,463.9,349.9,470.7z"/>
						<path class="st20" d="M218.8,671.4c-0.1,0-0.3-0.2-0.3-0.3c0-0.3-4.9-27.6-14.4-39.6c-0.1-0.2-0.1-0.4,0.1-0.5
							c0.2-0.1,0.4-0.1,0.6,0.1c9.5,12.1,14.5,39.6,14.5,39.9c0,0.2-0.1,0.4-0.3,0.5C218.9,671.5,218.8,671.5,218.8,671.4z"/>
						<path class="st20" d="M195.4,660.6c-0.1,0-0.1,0-0.2-0.1c-0.2-0.1-15.4-14.7-14.9-30.6c0-0.2,0.2-0.4,0.4-0.4
							c0.2,0,0.4,0.2,0.4,0.4c-0.5,15.5,14.5,29.9,14.6,30c0.2,0.1,0.2,0.4,0,0.6C195.6,660.5,195.5,660.6,195.4,660.6z"/>
					</g>
				</g>
			</g>
		</g>
		<g>
			<path class="st19" d="M508.8,451.9c6.2-6.6,10.2-12.7,9-13.9c-1.2-1.1-7.1,3.1-13.5,9.6C500,452.2,505.5,454.8,508.8,451.9z"/>
			<path class="st19" d="M506.5,445.6l-15.2,12.2c-4.7,3.1-11.6,7.6-19,12.5c-14.6,9.6-32,18.1-40.6,23.8c0,0-28.3-10.3-56.1-17.3
				c-22.2-5.6-44.3-6.2-48.1,3.8c-7.8,20.7,16.6,31.5,55.9,38c0,0,0,0,0,0c20,3.4,43.8,6.2,50.9,2.1c13.2-7.6,32-19.6,48.7-37
				c5.4-5.6,10.2-10.8,14-15c0.7,0.3,1.3,0.5,2,0.6c0,0,11.9-1.1,14.1-7.9C515,453.9,507.1,446.2,506.5,445.6z"/>
			<path class="st23" d="M386.4,477.5c0,0,4.1,7.8,1,24.3c-1.1,5.9-3.7,12.1-8.4,17.7c-20.1-2.9-58.8-12.6-54.7-37.9
				C328.4,456.3,386.4,477.5,386.4,477.5z"/>
		</g>
		<path class="st23" d="M307.6,469.2c0,0-28.6,4.5-50.2,32.8c12.7,20.7,31.7,30.5,31.7,30.5s32.6-23,35.9-42.1
			C328.2,471.2,307.6,469.2,307.6,469.2z"/>
		<path class="st5" d="M372.5,392.9c0.3-16.2-12.1-20.2-12.1-20.2c5.4-18.5-19.3-30.3-42.7-18.5c0,0-9.5-5.4-25.6,4.4
			c-21.9,12.9-19.7,39.9-19.7,39.9c-25.4,7.3-35.4,30-28,50.3c0,0-29.6,11.2-24.5,41.1c5.1,29.9,30,32.9,30,32.9s6.9,44.5,40.8,40.9
			c33.9-3.6,35.5-31.1,35.5-31.1s27.7,9.7,39.8-20.8c12.1-30.5-17.2-47.4-17.2-47.4s17.8-8,17.5-27.1c-0.2-12.3-7.1-19.9-12-23.8
			C365.5,407.4,372.3,401.9,372.5,392.9z"/>
	</g>
	<g>
		<g>
			<polygon class="st1" points="733.3,516.5 737.8,530.7 752.4,530.7 740.6,539.4 745.1,553.6 733.3,544.8 721.5,553.6 726,539.4 
				714.2,530.7 728.8,530.7 			"/>
			<polygon class="st1" points="785.5,516.5 790.1,530.7 804.6,530.7 792.8,539.4 797.3,553.6 785.5,544.8 773.8,553.6 778.3,539.4 
				766.5,530.7 781,530.7 			"/>
			<polygon class="st1" points="837.8,516.5 842.3,530.7 856.9,530.7 845.1,539.4 849.6,553.6 837.8,544.8 826,553.6 830.5,539.4 
				818.7,530.7 833.3,530.7 			"/>
			<polygon class="st1" points="890.1,516.5 894.6,530.7 909.2,530.7 897.4,539.4 901.9,553.6 890.1,544.8 878.3,553.6 882.8,539.4 
				871,530.7 885.6,530.7 			"/>
		</g>
		<g>
			<g>
				<ellipse class="st24" cx="812.6" cy="381.9" rx="30.9" ry="30.8"/>
				<path class="st6" d="M833.1,365.8c-7.8,2.4-17.5,11.1-22.9,20.7c-1.6-3.9-6.5-6.9-8.9-7.4l-5.8,7.7c4.6,1.2,10,5.8,11.5,11.2h7
					c2-6,7.3-20.4,20.9-29.7C834.6,367.3,833.3,365.9,833.1,365.8z"/>
			</g>
			<g>
				<path class="st5" d="M838.7,469.4h-54.9c-1.1,0-2.1-0.7-2.4-1.8l-10.5-32.9c-0.2-0.8-0.1-1.6,0.4-2.3c0.5-0.7,1.2-1,2-1h75.9
					c0.8,0,1.6,0.4,2,1c0.5,0.7,0.6,1.5,0.4,2.3l-10.5,32.9C840.8,468.7,839.8,469.4,838.7,469.4z M785.6,464.3h51.2l8.9-27.8l-69,0
					L785.6,464.3z"/>
				<path class="st5" d="M834.2,483.3h-46.8c-1.4,0-2.5-1.1-2.5-2.5c0-1.4,1.1-2.5,2.5-2.5h45c3.1-0.1,4.4-2.2,4.7-4.4
					c0.2-1.9-0.5-3.9-1.8-4.5l15.8-49.7c0.3-1,1.3-1.8,2.4-1.8h16.3c1.4,0,2.5,1.1,2.5,2.5c0,1.4-1.1,2.5-2.5,2.5h-14.5l-14.5,46.1
					C844.6,475.4,839.3,483.3,834.2,483.3z"/>
				<path class="st5" d="M802.7,491.7c0,3.2-2.6,5.8-5.8,5.8c-3.2,0-5.8-2.6-5.8-5.8c0-3.2,2.6-5.8,5.8-5.8
					C800.1,485.9,802.7,488.5,802.7,491.7z"/>
				<path class="st5" d="M831.8,491.7c0,3.2-2.6,5.8-5.8,5.8c-3.2,0-5.8-2.6-5.8-5.8c0-3.2,2.6-5.8,5.8-5.8
					C829.2,485.9,831.8,488.5,831.8,491.7z"/>
				<path class="st5" d="M812.6,469.4c-1.4,0-2.5-1.1-2.5-2.5V434c0-1.4,1.1-2.5,2.5-2.5c1.4,0,2.5,1.1,2.5,2.5v32.9
					C815.1,468.2,814,469.4,812.6,469.4z"/>
				<path class="st5" d="M798.6,469.4c-1.1,0-2.2-0.8-2.4-2l-7.4-32.9c-0.3-1.4,0.5-2.7,1.9-3c1.4-0.3,2.7,0.5,3,1.9l7.4,32.9
					c0.3,1.4-0.5,2.7-1.9,3C799,469.4,798.8,469.4,798.6,469.4z"/>
				<path class="st5" d="M826,469.4c-0.1,0-0.2,0-0.4,0c-1.4-0.2-2.3-1.5-2.1-2.9l4.8-32.9c0.2-1.4,1.5-2.3,2.8-2.1
					c1.4,0.2,2.3,1.5,2.1,2.9l-4.8,32.9C828.3,468.5,827.3,469.4,826,469.4z"/>
				<path class="st5" d="M844,453.1h-65.4c-1.4,0-2.5-1.1-2.5-2.5c0-1.4,1.1-2.5,2.5-2.5H844c1.4,0,2.5,1.1,2.5,2.5
					C846.5,452,845.3,453.1,844,453.1z"/>
			</g>
		</g>
	</g>
	<g>
		<g>
			<path class="st13" d="M165.4,458.1c-17.9-0.1-53.3-0.3-118.8-0.3c-10.2,0-18.5-8.2-18.5-18.4v-31.2c0-10.1,8.3-18.4,18.4-18.4
				h116.8c10.2,0,18.4,8.2,18.4,18.4v33.6C181.8,450.9,174.5,458.2,165.4,458.1z"/>
			<path class="st6" d="M62.2,424c0,3.4-2.8,6.2-6.3,6.2c-3.5,0-6.3-2.8-6.3-6.2c0-3.4,2.8-6.2,6.3-6.2
				C59.4,417.8,62.2,420.6,62.2,424z"/>
			<path class="st6" d="M94.9,424c0,3.4-2.8,6.2-6.3,6.2c-3.5,0-6.3-2.8-6.3-6.2c0-3.4,2.8-6.2,6.3-6.2
				C92.1,417.8,94.9,420.6,94.9,424z"/>
			<path class="st6" d="M127.6,424c0,3.4-2.8,6.2-6.3,6.2c-3.5,0-6.3-2.8-6.3-6.2c0-3.4,2.8-6.2,6.3-6.2
				C124.8,417.8,127.6,420.6,127.6,424z"/>
			<path class="st6" d="M160.3,424c0,3.4-2.8,6.2-6.3,6.2c-3.5,0-6.3-2.8-6.3-6.2c0-3.4,2.8-6.2,6.3-6.2
				C157.5,417.8,160.3,420.6,160.3,424z"/>
		</g>
		<polygon class="st13" points="118.6,445.9 118.6,474.3 82.4,447 		"/>
	</g>
</g>
</svg>
